<?xml version="1.0" encoding="UTF-8"?>
<!DOCTYPE svg PUBLIC "-//W3C//DTD SVG 1.2 Tiny//EN"
  "http://www.w3.org/Graphics/SVG/1.2/DTD/svg12-tiny.dtd">
<svg xmlns="http://www.w3.org/2000/svg"
     version="1.2"
     viewBox="0 0 300 300">
  <!-- Solid white background -->
  <rect width="300" height="300" fill="#ffffff"/>

  <!-- Your logo path -->
  <g transform="translate(0,300) scale(0.05,-0.05)" fill="#000000">
    <path d="M0 3010 l0 -3010 2976 0 c2288 0 2982 6 3000 24 18 18 24 714 24
    3010 l0 2986 -3000 0 -3000 0 0 -3010z m3186 2500 c391 -102 596 -368 633
    -825 36 -439 311 -751 712 -807 71 -10 188 -26 261 -37 914 -128 919 -1454 5
    -1623 -506 -93 -904 261 -956 850 -74 827 -1047 1112 -1542 453 -99 -131 -136
    -250 -158 -498 -95 -1091 -1631 -1085 -1631 7 0 494 284 779 827 829 497 47
    782 333 825 830 52 599 499 958 1024 821z m166 -3419 c720 -355 567 -1407
    -227 -1555 -626 -116 -1154 590 -871 1165 207 420 690 591 1098 390z"/>
  </g>
</svg>
